<svg id="Layer_1" data-name="Layer 1" xmlns="http://www.w3.org/2000/svg" viewBox="0 0 800 160"><defs><style>.cls-1{fill:none;stroke:#414042;stroke-miterlimit:10;stroke-width:2px;}.cls-1,.cls-2{opacity:0.95;}.cls-3,.cls-4{fill:#414042;}.cls-4{opacity:0.99;isolation:isolate;}</style></defs><line class="cls-1" x1="355.91" y1="40" x2="355.91" y2="120"/><g class="cls-2"><path class="cls-3" d="M380.38,69.83l-7.15-10.51h3.18L382,67.73h.24l5.65-8.41h3l-7.32,10.62,7.16,10.52h-3.16L382,72.13h-.23l-5.64,8.33h-3Z"/><path class="cls-3" d="M392.7,69.9c0-6.83,3.57-11.07,9.32-11.07,4.45,0,7.92,2.79,8.55,6.87h-2.68A5.8,5.8,0,0,0,402,61.26c-4.06,0-6.61,3.34-6.61,8.64S398,78.53,402,78.53c2.94,0,5.19-1.51,5.86-4h2.68c-.7,3.88-4,6.39-8.54,6.39C396.29,81,392.7,76.71,392.7,69.9Z"/><path class="cls-3" d="M427.9,80.46H414.8V59.32h13.1V61.7H417.44v6.78h9.92v2.34h-9.92v7.27H427.9Z"/><path class="cls-3" d="M440.22,59.32a6.8,6.8,0,0,1,0,13.6h-5.32v7.54h-2.63V59.32Zm-5.35,11.25h4.66c3,0,4.75-1.61,4.75-4.41s-1.69-4.49-4.75-4.49h-4.66Z"/><path class="cls-3" d="M456.38,80.46V61.7h-6.81V59.32h16.26V61.7H459V80.46Z"/><path class="cls-3" d="M469.52,80.46V59.32h2.64V80.46Z"/><path class="cls-3" d="M496.05,69.88c0,6.76-3.63,11.08-9.67,11.08s-9.71-4.31-9.71-11.08,3.74-11,9.71-11S496.05,63.1,496.05,69.88Zm-16.67,0c0,5.25,2.61,8.65,7,8.65s7-3.4,7-8.65-2.63-8.62-7-8.62S479.38,64.6,479.38,69.88Z"/><path class="cls-3" d="M500.54,80.46V59.32h2.56l11.47,16.45h.23V59.32h2.61V80.46h-2.56L503.38,64.07h-.24V80.46Z"/></g><g class="cls-2"><path class="cls-3" d="M374.08,98.16c.09.93,1,1.56,2.17,1.56s2-.63,2-1.5-.5-1.16-1.65-1.45l-1-.24c-1.44-.37-2.08-1-2.08-2,0-1.25,1.13-2.14,2.66-2.14a2.4,2.4,0,0,1,2.66,2.12h-.74c-.07-.87-.84-1.45-1.94-1.45s-1.87.59-1.87,1.45c0,.66.48,1,1.62,1.34l.84.22c1.55.39,2.21,1,2.21,2.07,0,1.36-1.1,2.25-2.81,2.25s-2.76-.9-2.84-2.23Z"/><path class="cls-3" d="M382,100.26V93.18h-2.56v-.67h5.85v.67h-2.56v7.08Z"/><path class="cls-3" d="M389.6,97.89h-3.26l-.85,2.37h-.78l2.9-7.75h.73l2.89,7.75h-.77Zm-3-.63h2.82L388,93.42h0Z"/><path class="cls-3" d="M391.49,96.37c0-2.43,1.35-4,3.46-4A3,3,0,0,1,398.09,95h-.74a2.38,2.38,0,0,0-2.4-1.9c-1.65,0-2.7,1.29-2.7,3.3s1.05,3.34,2.7,3.34a2.28,2.28,0,0,0,2.4-1.74h.74a2.93,2.93,0,0,1-3.14,2.42C392.84,100.39,391.49,98.82,391.49,96.37Z"/><path class="cls-3" d="M399.24,100.26V92.51H400v4h0l3.68-4h.93l-3.18,3.43,3.5,4.32H404l-3.08-3.8-1,1v2.76Z"/><path class="cls-3" d="M408.76,100.26H408V92.51h2.74a2.23,2.23,0,0,1,2.48,2.27A2.15,2.15,0,0,1,411.59,97l1.88,3.29h-.86l-1.79-3.17h-2.06Zm0-3.82h1.95a1.57,1.57,0,0,0,1.78-1.64,1.59,1.59,0,0,0-1.81-1.63h-1.92Z"/><path class="cls-3" d="M419.2,100.26h-4.68V92.51h4.68v.67h-3.95V96H419v.65h-3.75v3h3.95Z"/><path class="cls-3" d="M420.36,100.26V92.51h.73L425.63,99h0V92.51h.73v7.75h-.71l-4.56-6.47h0v6.47Z"/><path class="cls-3" d="M430.49,92.51c2.32,0,3.67,1.43,3.67,3.88s-1.35,3.87-3.67,3.87H428V92.51Zm-1.78,7.09h1.73c1.91,0,3-1.15,3-3.21s-1.07-3.21-3-3.21h-1.73Z"/><path class="cls-3" d="M440.06,100.26h-4.68V92.51h4.68v.67h-3.95V96h3.75v.65h-3.75v3h3.95Z"/><path class="cls-3" d="M442,100.26h-.73V92.51H444a2.22,2.22,0,0,1,2.48,2.27A2.14,2.14,0,0,1,444.78,97l1.88,3.29h-.85L444,97.09H442Zm0-3.82h1.94a1.57,1.57,0,0,0,1.79-1.64,1.59,1.59,0,0,0-1.81-1.63H442Z"/><path class="cls-3" d="M452.39,100.26h-4.67V92.51h4.67v.67h-3.94V96h3.75v.65h-3.75v3h3.94Z"/><path class="cls-3" d="M454.29,100.26h-.73V92.51h2.73a2.23,2.23,0,0,1,2.49,2.27A2.15,2.15,0,0,1,457.12,97l1.88,3.29h-.86l-1.79-3.17h-2.06Zm0-3.82h1.95A1.57,1.57,0,0,0,458,94.8a1.59,1.59,0,0,0-1.81-1.63h-1.92Z"/><path class="cls-3" d="M467,99.36a3.68,3.68,0,0,1-2.55,1A2.26,2.26,0,0,1,462,98.24a2.37,2.37,0,0,1,1.5-2.1l.41-.2c-.78-.81-1.05-1.3-1.05-1.87a1.76,1.76,0,0,1,1.91-1.67,1.73,1.73,0,0,1,1.89,1.67c0,.77-.5,1.37-1.75,2L467,98.37a4.26,4.26,0,0,0,.5-2.16V95.9h.68v.32a4.88,4.88,0,0,1-.7,2.64l1.34,1.4h-.92Zm-4.35-1.16a1.65,1.65,0,0,0,1.86,1.56,2.86,2.86,0,0,0,2.05-.87l-2.33-2.51-.38.21C463,97.08,462.69,97.58,462.69,98.2Zm3.24-4.1a1.12,1.12,0,0,0-1.2-1.12,1.16,1.16,0,0,0-1.22,1.13c0,.45.24.84,1,1.56C465.52,95.15,465.93,94.68,465.93,94.1Z"/><path class="cls-3" d="M471.62,96.37c0-2.43,1.34-4,3.45-4A3,3,0,0,1,478.21,95h-.73a2.4,2.4,0,0,0-2.41-1.9c-1.64,0-2.7,1.29-2.7,3.3s1.06,3.34,2.7,3.34A2.3,2.3,0,0,0,477.48,98h.73a2.93,2.93,0,0,1-3.14,2.42C473,100.39,471.62,98.82,471.62,96.37Z"/><path class="cls-3" d="M486.05,96.39c0,2.46-1.36,4-3.53,4s-3.51-1.54-3.51-4,1.36-4,3.51-4S486.05,93.94,486.05,96.39Zm-6.29,0c0,2,1.07,3.32,2.76,3.32s2.78-1.29,2.78-3.32-1.08-3.32-2.78-3.32S479.76,94.36,479.76,96.39Z"/><path class="cls-3" d="M487.29,100.26V92.51H488L492.56,99h0V92.51h.72v7.75h-.71l-4.56-6.47h0v6.47Z"/><path class="cls-3" d="M496.83,100.26V93.18h-2.56v-.67h5.86v.67h-2.56v7.08Z"/><path class="cls-3" d="M505.75,100.26h-4.68V92.51h4.68v.67H501.8V96h3.75v.65H501.8v3h3.95Z"/><path class="cls-3" d="M509.31,96.39v0l-2.67-3.85h.88l2.26,3.3h0l2.28-3.3h.84l-2.72,3.88v0l2.68,3.85H512L509.76,97h0l-2.28,3.27h-.83Z"/><path class="cls-3" d="M516.18,100.26V93.18h-2.55v-.67h5.85v.67h-2.56v7.08Z"/><path class="cls-3" d="M519.36,97.47V96.8h3.52v.67Z"/><path class="cls-3" d="M528.34,97.89h-3.26l-.85,2.37h-.78l2.9-7.75h.73l2.89,7.75h-.77Zm-3-.63h2.81l-1.39-3.84h0Z"/><path class="cls-3" d="M532.62,100.26h-.69l-2.13-7.75h.76l1.71,6.63h0l1.87-6.63h.73l1.87,6.63h0l1.7-6.63h.77l-2.14,7.75h-.68l-1.9-6.49h-.05Z"/><path class="cls-3" d="M544,97.89h-3.25l-.86,2.37h-.78l2.9-7.75h.73l2.9,7.75h-.78Zm-3-.63h2.81l-1.39-3.84h0Z"/><path class="cls-3" d="M547.28,100.26h-.73V92.51h2.73a2.22,2.22,0,0,1,2.48,2.27A2.14,2.14,0,0,1,550.1,97l1.88,3.29h-.86l-1.78-3.17h-2.06Zm0-3.82h1.94A1.56,1.56,0,0,0,551,94.8a1.59,1.59,0,0,0-1.81-1.63h-1.91Z"/><path class="cls-3" d="M557.71,100.26H553V92.51h4.68v.67h-4V96h3.75v.65h-3.75v3h4Z"/><path class="cls-3" d="M561,96.37c0-2.43,1.34-4,3.45-4A3,3,0,0,1,567.54,95h-.73a2.4,2.4,0,0,0-2.41-1.9c-1.64,0-2.7,1.29-2.7,3.3s1.06,3.34,2.71,3.34a2.28,2.28,0,0,0,2.4-1.74h.73a2.93,2.93,0,0,1-3.14,2.42C562.29,100.39,561,98.82,561,96.37Z"/><path class="cls-3" d="M569.35,97.51a2.27,2.27,0,0,0,4.54,0v-5h.73v5a3,3,0,0,1-6,0v-5h.73Z"/><path class="cls-3" d="M576.43,98.16c.08.93,1,1.56,2.17,1.56s2-.63,2-1.5-.5-1.16-1.65-1.45l-1-.24c-1.44-.37-2.08-1-2.08-2,0-1.25,1.13-2.14,2.66-2.14a2.4,2.4,0,0,1,2.66,2.12h-.74c-.07-.87-.84-1.45-1.94-1.45s-1.87.59-1.87,1.45c0,.66.48,1,1.62,1.34l.84.22c1.56.39,2.21,1,2.21,2.07,0,1.36-1.1,2.25-2.81,2.25s-2.76-.9-2.84-2.23Z"/><path class="cls-3" d="M584.38,100.26V93.18h-2.56v-.67h5.85v.67h-2.56v7.08Z"/><path class="cls-3" d="M595,96.39c0,2.46-1.35,4-3.52,4s-3.52-1.54-3.52-4,1.36-4,3.52-4S595,93.94,595,96.39Zm-6.29,0c0,2,1.07,3.32,2.77,3.32s2.77-1.29,2.77-3.32-1.07-3.32-2.77-3.32S588.68,94.36,588.68,96.39Z"/><path class="cls-3" d="M603,100.26V93.9h0l-2.69,6.33h-.64l-2.69-6.33h0v6.36h-.68V92.51h.84l2.87,6.79h0l2.86-6.79h.85v7.75Z"/><path class="cls-3" d="M612.11,100.26h-4.68V92.51h4.68v.67h-4V96h3.75v.65h-3.75v3h4Z"/><path class="cls-3" d="M614,100.26h-.73V92.51H616a2.23,2.23,0,0,1,2.48,2.27A2.14,2.14,0,0,1,616.83,97l1.88,3.29h-.86l-1.78-3.17H614Zm0-3.82h2a1.56,1.56,0,0,0,1.78-1.64,1.59,1.59,0,0,0-1.81-1.63H614Z"/><path class="cls-3" d="M620.49,100.26h-.73V92.51h2.73A2.23,2.23,0,0,1,625,94.78,2.15,2.15,0,0,1,623.32,97l1.88,3.29h-.86l-1.79-3.17h-2.06Zm0-3.82h1.94a1.57,1.57,0,0,0,1.79-1.64,1.59,1.59,0,0,0-1.81-1.63h-1.92Z"/><path class="cls-3" d="M632.89,96.39c0,2.46-1.36,4-3.53,4s-3.52-1.54-3.52-4,1.36-4,3.52-4S632.89,93.94,632.89,96.39Zm-6.29,0c0,2,1.06,3.32,2.76,3.32s2.77-1.29,2.77-3.32-1.07-3.32-2.77-3.32S626.6,94.36,626.6,96.39Z"/><path class="cls-3" d="M634.86,100.26h-.73V92.51h2.73a2.22,2.22,0,0,1,2.48,2.27A2.14,2.14,0,0,1,637.68,97l1.88,3.29h-.86l-1.78-3.17h-2.06Zm0-3.82h1.94a1.57,1.57,0,0,0,1.79-1.64,1.59,1.59,0,0,0-1.81-1.63h-1.92Z"/></g><path class="cls-4" d="M322.42,30a4.34,4.34,0,0,1,4.36,4.36V53.92a4.34,4.34,0,0,1-4.36,4.36H302.86a4.35,4.35,0,0,1-4.37-4.36V34.36A4.35,4.35,0,0,1,302.86,30Zm-35.24,0a4.34,4.34,0,0,1,4.35,4.36V53.92a4.34,4.34,0,0,1-4.35,4.36H267.61a4.35,4.35,0,0,1-4.36-4.36V34.36A4.35,4.35,0,0,1,267.61,30Zm-35.25,0a4.34,4.34,0,0,1,4.36,4.36V53.92a4.34,4.34,0,0,1-4.36,4.36H232.36A4.35,4.35,0,0,1,228,53.92V34.36A4.35,4.35,0,0,1,232.36,30Zm70.49,35.25a4.34,4.34,0,0,1,4.36,4.36V89.17a4.34,4.34,0,0,1-4.36,4.36H302.86a4.35,4.35,0,0,1-4.37-4.36V69.61a4.35,4.35,0,0,1,4.37-4.36Zm-35.24,0a4.34,4.34,0,0,1,4.35,4.36V89.17a4.34,4.34,0,0,1-4.35,4.36H267.61a4.35,4.35,0,0,1-4.36-4.36V69.61a4.35,4.35,0,0,1,4.36-4.36Zm-35.25,0a4.34,4.34,0,0,1,4.36,4.36V89.17a4.34,4.34,0,0,1-4.36,4.36H232.36A4.35,4.35,0,0,1,228,89.17V69.61a4.35,4.35,0,0,1,4.36-4.36Zm35.25,35.25a4.34,4.34,0,0,1,4.35,4.36v19.56a4.34,4.34,0,0,1-4.35,4.36H267.61a4.35,4.35,0,0,1-4.36-4.36V104.86a4.35,4.35,0,0,1,4.36-4.36Zm-35.25,0a4.34,4.34,0,0,1,4.36,4.36v19.56a4.34,4.34,0,0,1-4.36,4.36H232.36a4.35,4.35,0,0,1-4.36-4.36V104.86a4.35,4.35,0,0,1,4.36-4.36Zm83.71,13.22a4.34,4.34,0,0,1,4.36,4.36v19.56a4.34,4.34,0,0,1-4.36,4.36H316.08a4.35,4.35,0,0,1-4.37-4.36V118.08a4.35,4.35,0,0,1,4.37-4.36Zm-2.35,3.41H318.43a3.3,3.3,0,0,0-3.31,3.3v14.86a3.3,3.3,0,0,0,3.31,3.3h14.86a3.29,3.29,0,0,0,3.3-3.3V120.43A3.29,3.29,0,0,0,333.29,117.13Z"/></svg>