<?xml version="1.0" encoding="utf-8" ?><svg xmlns="http://www.w3.org/2000/svg" xmlns:xlink="http://www.w3.org/1999/xlink" width="800" height="800" viewBox="112 106 800 800"><rect x="112" y="106" width="800" height="800" rx="40" ry="40" fill="#FFFFFF"/><path d="M521.952 113.119C542.396 112.123 538.829 120.493 540.097 136.799C541.166 150.538 543.766 165.511 549.305 178.172C561.396 150.168 581.347 147.789 595.123 175.967C607.292 200.858 614.005 239.798 605.322 266.676C606.73 264.872 608.164 263.088 609.624 261.326C621.37 247.361 641.638 238.036 659.633 237.144C666.071 236.825 672.918 236.91 679.392 236.911L713.057 236.937L752.316 236.933C763.921 236.924 778.245 236.377 789.293 238.788C802.428 241.65 814.64 247.746 824.821 256.523C853.191 280.805 859.545 319.657 841.794 352.557C836.708 361.982 827.847 371.003 820.715 379.092L791.871 411.695L675.492 544.788C689.19 558.654 702.878 574.132 716.023 588.582C732.115 606.288 748.296 623.914 764.566 641.457L812.956 694.253C819.989 702.073 828.859 711.362 835.223 719.48C839.311 724.675 842.718 730.373 845.359 736.433C853.561 755.791 853.85 777.591 846.166 797.159C840.54 811.085 826.926 829.531 812.957 835.492C813.354 852.934 811.568 869.722 796.459 881.177C771.12 900.388 732.227 900.434 701.689 897.892C683.236 896.356 663.605 889.905 648.363 879.468C632.206 868.236 619.153 851.387 606.341 836.503L572.806 797.783L538.78 758.52C532.095 750.858 524.771 742.907 518.405 735.046C516.444 732.789 515.335 731.917 513.072 730.064C505.571 731.378 500.192 739.999 495.379 745.638L478.145 765.517L423.033 829.348C412.189 841.965 398.933 858.214 387.296 869.613C362.091 894.301 321.974 899.896 288.061 899.012C266.542 898.452 238.499 893.515 223.271 876.902C211.947 864.549 210.678 851.554 211.135 835.731C205.176 832.778 199.731 828.885 195.008 824.202C170.645 799.97 166.064 758.263 183.704 728.915C190.462 717.672 202.255 705.885 211.209 695.997C225.944 679.658 240.791 663.42 255.747 647.283L306.966 590.972C319.734 576.764 335.831 558.443 349.165 545.063L348.706 544.581C335.428 530.569 320.027 512.42 307.193 497.806C283.57 471.207 260.138 444.44 236.897 417.507L203.716 379.902C198.928 374.412 193.79 368.81 189.336 363.063C165.2 331.922 168.183 285.136 196.931 258.2C206.474 249.229 218.123 242.804 230.803 239.52C244.238 236.167 255.088 236.919 268.768 236.925L303.039 236.955C320.262 236.971 337.78 236.938 354.975 236.933C384.585 236.925 401.134 248.417 420.368 269.19C413.996 239.747 419.14 208.983 434.742 183.215C450.572 157.211 492.044 120.361 521.952 113.119Z"/><path fill="#F83327" d="M253.265 268.207C282.69 266.598 314.073 269.074 343.543 268.13C374.615 267.136 382.072 275.454 402.829 294.852L448.179 338.055C465.299 354.418 484.631 376.371 510.373 377.914C541.965 379.807 566.298 344.32 588.163 325.345C596.538 316.032 607.742 306.999 616.127 298.128C643.247 269.434 651.428 267.985 690.343 268.076L722.294 268.081C738.187 268.078 754.632 267.74 770.432 268.288C786.205 268.835 798.407 273.173 808.927 285.246C820.827 298.903 822.846 316.497 815.87 333.1C811.278 344.03 802.645 351.649 794.601 360.236C789.113 366.077 783.679 371.969 778.3 377.91L680.429 484.027C667.421 498.145 653.109 512.558 640.687 526.943C632.93 536.468 631.393 551.319 639.628 560.916C651.989 575.32 666.047 588.984 679.138 602.688L763.674 691.19C771.916 699.794 780.363 708.358 788.588 717.005C794.365 723.079 801.236 729.313 806.66 735.618C815.526 745.729 819.936 758.99 818.89 772.397C817.689 786.898 809.177 799.452 798.295 808.636C776.42 772.391 731.053 761.725 694.269 781.814C674.63 793.557 665.659 805.288 656.432 825.676C648.281 818.259 633.544 800.99 625.66 792.3L561.988 723.099L542.757 702.213C534.356 692.962 524.576 679.561 510.593 680.336C497.637 681.055 490.059 691.769 482.038 700.509L456.156 728.832C427.407 760.159 396.257 793.414 368.48 825.298C362.433 808.299 350.915 793.789 335.732 784.042C311.671 768.349 279.042 767.286 253.97 781.391C241.54 788.383 233.353 797.024 225.706 808.854C214.52 799.334 206.37 788.125 205.15 773.046C204.388 762.519 207.011 752.024 212.636 743.094C215.81 738.144 223.691 730.265 228.001 725.825C235.387 718.291 242.727 710.711 250.02 703.086L340.184 608.68C347.67 600.82 355.055 592.81 362.633 585.05C369.228 578.296 376.228 571.749 382.334 564.542C389.425 556.171 392.225 546.73 387.944 536.139C384.08 526.579 363.049 506.054 354.887 497.139C322.98 462.634 291.297 427.922 259.84 393.006L232.642 363.371C226.365 356.598 218.48 349.014 213.437 341.467C197.577 317.728 205.1 284.968 231.707 272.912C239.454 269.402 244.822 268.783 253.265 268.207Z"/><path d="M359.045 351.087L359.808 351.053C388.638 349.861 434.28 369.16 458.276 384.447C464.017 388.104 472.332 393.053 477.273 397.627C470.311 395.46 466.911 393.941 460.711 390.123C465.8 415.317 462.134 435.183 442.316 452.972C429.864 463.943 414.205 467.525 397.734 466.986C365.487 465.931 339.647 440.465 341.597 407.568C342.664 389.568 351.461 375.993 364.918 364.073C361.038 361.742 354.566 358.676 355.214 353.575C356.302 351.892 357.154 351.802 359.045 351.087Z"/><path fill="#FEFEFF" d="M402.351 374.635C408.837 376.044 420.825 382.974 426.176 386.886C425.935 397.574 422.985 402.746 413.06 407.281C409.072 408.175 406.08 408.301 402.093 406.958C397.46 405.385 393.679 401.973 391.642 397.524C386.864 387.165 392.679 378.717 402.351 374.635Z"/><path d="M657.538 351.192C661.496 350.893 665.611 349.886 668.352 353.302C669.816 358.27 664.02 361.536 660.514 363.773C671.565 376.354 678.179 381.602 682.451 399.461C685.742 413.216 682.602 428.103 675.033 440C666.662 453.184 653.305 462.412 638.012 465.577C620.218 469.378 604.277 465.325 589.236 455.579C585.087 452.61 581.346 449.109 578.108 445.166C563.722 427.668 563.992 410.039 566.13 389.03C560.267 392.61 555.501 395.242 549.139 397.829C554.322 391.758 562.713 386.828 569.593 382.784C596.78 366.802 626.111 355.042 657.538 351.192Z"/><path fill="#FEFEFF" d="M618.271 374.47C620.977 374.759 627 378.729 628.468 381.158C630.82 385.051 631.678 389.225 630.795 393.693C629.835 398.366 627.047 402.461 623.052 405.067C618.6 408.014 614.451 408.426 609.359 407.451C606.555 406.678 603.958 405.289 601.758 403.385C596.41 398.838 595.279 393.476 594.818 386.96C603.176 380.373 608.594 378.296 618.271 374.47Z"/><path d="M476.72 375.477C474.364 376.652 473.272 375.998 470.989 375.128L470.555 375.51C471.236 376.601 471.534 376.691 471.615 377.764C468.152 376.624 459.973 371.298 459.092 367.73C462.941 362.646 479.029 369.2 479.451 374.382L478.605 374.687L476.962 373.771L476.72 375.477Z"/><path fill="#DE3A28" d="M476.72 375.477C474.992 373.677 474.668 374.364 472.894 371.658L473.113 371.796L474.119 371.453C475.432 372.382 475.766 372.612 476.962 373.771L476.72 375.477Z"/><path d="M557.768 366.102C560.43 365.935 562.708 365.192 564.271 367.579C563.955 371.403 558.836 374.863 555.695 376.649C554.716 377.206 555.651 375.932 554.013 375.032C552.096 376.201 551.518 376.636 549.428 377.331L548.763 376.918L548.93 375.616L552.973 371.051C548.895 373.414 545.708 375.276 541.407 377.248C546.121 372.004 550.97 368.146 557.768 366.102Z"/><path fill="#F83327" d="M508.389 155.487C509.273 156.67 512.958 172.549 514.039 175.702C519.127 190.545 529.187 214.349 547.025 216.62C558.575 218.091 566.237 208.062 570.309 199.216C588.078 240.465 579.381 289.127 535.395 308.528C484.233 327.714 446.238 286.023 451.475 235.778C455.271 199.36 481.667 177.014 508.389 155.487Z"/><path fill="#F83327" d="M289.609 798.203C305.183 797.453 322.712 804.698 332.731 816.771C342.215 828.199 345.044 840.374 343.622 854.953C336.596 859.658 327.276 861.988 319.169 864.327C322.352 859.441 322.877 855.1 320.07 850.116C311.145 834.271 286.288 847.971 297.283 862.584C298.503 864.205 301.151 865.501 302.674 867.354C301.578 868.242 299.914 867.995 298.375 868.01C287.903 869.134 283.241 868.46 272.825 867.354C277.042 864.776 278.224 864.028 280.954 859.707C281.199 855.745 281.387 852.9 279.464 849.346C277.826 846.271 274.964 844.033 271.585 843.185C267.799 842.224 263.784 842.896 260.517 845.036C255.925 848.061 254.829 851.533 253.714 856.432C254.26 858.421 255.042 860.461 255.742 862.412C249.739 859.437 240.585 855.541 240.536 847.782C240.348 818.212 261.631 800.707 289.609 798.203Z"/><path fill="#F83327" d="M730.64 798.198C736.15 797.988 741.659 798.659 746.957 800.187C768.96 806.384 787.666 827.021 783.416 851.91C782.677 856.244 772.902 860.588 769.117 862.331C775.692 837.231 739.389 837.786 742.935 858.819C743.567 862.566 748.505 865.406 751.81 866.959C743.751 868.367 738.94 868.859 730.878 868.35C727.729 867.994 723.598 867.997 720.347 867.914C727.684 864.064 728.618 862.925 730.328 854.885C729.876 853.443 729.209 851.314 728.515 850.007C726.825 846.861 723.96 844.51 720.544 843.468C716.817 842.404 712.818 842.905 709.47 844.855C706.188 846.718 703.848 849.882 703.026 853.565C702.084 857.931 703.2 861.025 705.541 864.541C696.174 861.853 688.943 860.531 680.849 854.907C680.804 854.514 680.76 854.121 680.715 853.728C679.544 840.312 683.712 826.976 692.315 816.615C702.416 804.484 715.342 799.675 730.64 798.198Z"/></svg>
